<?xml version="1.0" encoding="UTF-8"?>
<svg xmlns="http://www.w3.org/2000/svg" id="Twotone" viewBox="0 0 64 64" width="512" height="512"><g id="Color_copy_2" data-name="Color copy 2"><rect x="3" y="21" width="56" height="40" style="fill:#fff"/><path d="M16,25V36A18,18,0,0,0,34,54H59v7H3V21H59v4Z" style="fill:#cff09e"/><path d="M3,7V21H59V7Zm8,10a4,4,0,1,1,4-4A4,4,0,0,1,11,17Zm13,0a4,4,0,1,1,4-4A4,4,0,0,1,24,17Zm14,0a4,4,0,1,1,4-4A4,4,0,0,1,38,17Zm13,0a4,4,0,1,1,4-4A4,4,0,0,1,51,17Z" style="fill:#79bd9a"/><rect x="9" y="3" width="4" height="10" rx="2" style="fill:#fff"/><rect x="22" y="3" width="4" height="10" rx="2" style="fill:#fff"/><rect x="36" y="3" width="4" height="10" rx="2" style="fill:#fff"/><rect x="49" y="3" width="4" height="10" rx="2" style="fill:#fff"/><rect x="21" y="41" width="10" height="10" style="fill:#79bd9a"/><path d="M12.74,11.98A2,2,0,0,1,9,11V5a2.006,2.006,0,0,1,2-2,2.112,2.112,0,0,1,.26.02A1.914,1.914,0,0,0,11,4v6A2.005,2.005,0,0,0,12.74,11.98Z" style="fill:#cff09e"/><path d="M25.74,11.98A2,2,0,0,1,22,11V5a2.006,2.006,0,0,1,2-2,2.112,2.112,0,0,1,.26.02A1.914,1.914,0,0,0,24,4v6A2.005,2.005,0,0,0,25.74,11.98Z" style="fill:#cff09e"/><path d="M39.74,11.98A2,2,0,0,1,36,11V5a2.006,2.006,0,0,1,2-2,2.112,2.112,0,0,1,.26.02A1.914,1.914,0,0,0,38,4v6A2.005,2.005,0,0,0,39.74,11.98Z" style="fill:#cff09e"/><path d="M52.74,11.98A2,2,0,0,1,49,11V5a2.006,2.006,0,0,1,2-2,2.112,2.112,0,0,1,.26.02A1.914,1.914,0,0,0,51,4v6A2.005,2.005,0,0,0,52.74,11.98Z" style="fill:#cff09e"/><path d="M46,21A15.947,15.947,0,0,0,30.543,41.073L26,47l7.29-.309A15.993,15.993,0,1,0,46,21Z" style="fill:#a8dba8"/><path d="M44.386,27.738A2.219,2.219,0,0,0,40,28.22V29h-.78a2.219,2.219,0,0,0-.482,4.386L41.5,34H45V30.5Z" style="fill:#79bd9a"/><path d="M41.5,34l-2.762.614A2.219,2.219,0,0,0,39.22,39H40v.78a2.219,2.219,0,0,0,4.386.482L45,37.5V34Z" style="fill:#79bd9a"/><path d="M50.78,29H50v-.78a2.219,2.219,0,0,0-4.386-.482L45,30.5V34h3.5l2.762-.614A2.219,2.219,0,0,0,50.78,29Z" style="fill:#79bd9a"/><path d="M51.262,34.614,48.5,34H45v3.5l.614,2.762A2.219,2.219,0,0,0,50,39.78V39h.78a2.219,2.219,0,0,0,.482-4.386Z" style="fill:#79bd9a"/></g><g id="Stroke_Close_copy" data-name="Stroke Close copy"><path d="M63,37a16.894,16.894,0,0,0-3-9.622V7a1,1,0,0,0-1-1H54V5a3,3,0,0,0-6,0V6H41V5a3,3,0,0,0-6,0V6H27V5a3,3,0,0,0-6,0V6H14V5A3,3,0,0,0,8,5V6H3A1,1,0,0,0,2,7V61a1,1,0,0,0,1,1H59a1,1,0,0,0,1-1V46.622A16.894,16.894,0,0,0,63,37ZM46,52a14.893,14.893,0,0,1-11.916-5.916,1,1,0,0,0-.794-.393h-.043L28.1,45.91l3.241-4.229a1,1,0,0,0,.174-.862A14.991,14.991,0,1,1,46,52ZM29.283,40H22V32h7.753A16.932,16.932,0,0,0,29,37,16.579,16.579,0,0,0,29.283,40ZM20,40H12V32h8Zm0,2v8H12V42Zm2,0h6.573l-3.366,4.392A1,1,0,0,0,26.042,48L30,47.831V50H22Zm10,5.747.821-.035A17.174,17.174,0,0,0,35.092,50H32ZM53.983,22H58v2.971A17.076,17.076,0,0,0,53.983,22ZM54,13a3,3,0,0,1-6,0,2.93,2.93,0,0,1,.189-.984,2.983,2.983,0,0,0,5.622,0A2.93,2.93,0,0,1,54,13ZM50,5a1,1,0,0,1,2,0v6a1,1,0,0,1-2,0Zm-9,8a3,3,0,0,1-6,0,2.93,2.93,0,0,1,.189-.984,2.983,2.983,0,0,0,5.622,0A2.93,2.93,0,0,1,41,13ZM37,5a1,1,0,0,1,2,0v6a1,1,0,0,1-2,0ZM27,13a3,3,0,0,1-6,0,2.93,2.93,0,0,1,.189-.984,2.983,2.983,0,0,0,5.622,0A2.93,2.93,0,0,1,27,13ZM23,5a1,1,0,0,1,2,0v6a1,1,0,0,1-2,0Zm-9,8a3,3,0,0,1-6,0,2.93,2.93,0,0,1,.189-.984,2.983,2.983,0,0,0,5.622,0A2.93,2.93,0,0,1,14,13ZM10,5a1,1,0,0,1,2,0v6a1,1,0,0,1-2,0ZM4,8H8V9.025a5,5,0,1,0,6,0V8h7V9.025a5,5,0,1,0,6,0V8h8V9.025a5,5,0,1,0,6,0V8h7V9.025a5,5,0,1,0,6,0V8h4V20H4ZM4,60V22H38.017A17.111,17.111,0,0,0,32,27.378V26a1,1,0,0,0-2,0v4H22V26a1,1,0,0,0-2,0v4H12V26a1,1,0,0,0-2,0v4H7a1,1,0,0,0,0,2h3v8H7a1,1,0,0,0,0,2h3v8H7a1,1,0,0,0,0,2h3v4a1,1,0,0,0,2,0V52h8v4a1,1,0,0,0,2,0V52h8v4a1,1,0,0,0,2,0V52h6c.011,0,.021-.006.032-.007a16.718,16.718,0,0,0,1.988.908A.826.826,0,0,0,40,53v3a1,1,0,0,0,2,0V53.517A17.082,17.082,0,0,0,46,54a16.912,16.912,0,0,0,4-.495V56a1,1,0,0,0,2,0V53a.9.9,0,0,0-.021-.106A17.032,17.032,0,0,0,58,49.029V60Z" style="fill:#3b8686"/><path d="M54,31.22a3.225,3.225,0,0,0-3.007-3.213A3.222,3.222,0,0,0,45,26.59a3.222,3.222,0,0,0-5.993,1.417A3.222,3.222,0,0,0,37.59,34a3.222,3.222,0,0,0,1.417,5.993,3.218,3.218,0,0,0,5.313,2.226A8.009,8.009,0,0,0,52,48a1,1,0,0,0,0-2,6,6,0,0,1-5.3-3.189,3.211,3.211,0,0,0,4.29-2.818A3.222,3.222,0,0,0,52.41,34,3.2,3.2,0,0,0,54,31.22Zm-5.717,3.756,2.762.614A1.22,1.22,0,0,1,50.78,38H50a1,1,0,0,0-1,1v.78a1.22,1.22,0,0,1-2.41.265l-.614-2.762a1,1,0,0,0-1.952,0l-.614,2.762A1.22,1.22,0,0,1,41,39.78V39a1,1,0,0,0-1-1h-.78a1.22,1.22,0,0,1-.265-2.41l2.762-.614a1,1,0,0,0,0-1.952l-2.762-.614A1.22,1.22,0,0,1,39.22,30H40a1,1,0,0,0,1-1v-.78a1.22,1.22,0,0,1,2.41-.265l.614,2.762a1,1,0,0,0,1.952,0l.614-2.762A1.22,1.22,0,0,1,49,28.22V29a1,1,0,0,0,1,1h.78a1.22,1.22,0,0,1,.265,2.41l-2.762.614a1,1,0,0,0,0,1.952Z" style="fill:#3b8686"/></g></svg>
