<svg height="512" viewBox="0 0 128 128" width="512" xmlns="http://www.w3.org/2000/svg"><g id="Circle_Grid" data-name="Circle Grid"><circle cx="64" cy="64" fill="#2cbfae" r="64"/></g><g id="icon"><circle cx="63.996" cy="63.997" fill="#eeefee" r="34.68"/><path d="m65.147 62.189a.87.87 0 0 1 .816.569l7.894 21.373a.87.87 0 1 1 -1.632.6l-7.585-20.531-17.246 6.93a.87.87 0 0 1 -.65-1.615l18.078-7.263a.866.866 0 0 1 .325-.063z" fill="#62667c"/><g fill="#575b6d"><path d="m65.144 99.856v-4.671a1.148 1.148 0 0 0 -1.144-1.148 1.148 1.148 0 0 0 -1.148 1.148v4.671z"/><path d="m65.144 28.138v4.672a1.148 1.148 0 0 1 -1.144 1.148 1.148 1.148 0 0 1 -1.148-1.148v-4.672z"/><path d="m99.855 62.849h-4.672a1.148 1.148 0 0 0 -1.148 1.151 1.148 1.148 0 0 0 1.148 1.148h4.672z"/><path d="m28.137 62.849h4.671a1.148 1.148 0 0 1 1.148 1.151 1.148 1.148 0 0 1 -1.148 1.148h-4.671z"/><path d="m39.451 90.165 3.3-3.3a1.149 1.149 0 0 0 0-1.624 1.149 1.149 0 0 0 -1.624 0l-3.3 3.3z"/><path d="m90.163 39.453-3.3 3.3a1.148 1.148 0 0 1 -1.623 0 1.146 1.146 0 0 1 0-1.623l3.3-3.3z"/><path d="m90.163 88.542-3.3-3.3a1.148 1.148 0 0 0 -1.623 0 1.147 1.147 0 0 0 0 1.624l3.3 3.3z"/><path d="m39.451 37.829 3.3 3.3a1.148 1.148 0 0 1 0 1.623 1.149 1.149 0 0 1 -1.624 0l-3.3-3.3z"/><path d="m64 105c-22.651 0-41 0-41-41s18.349-41 41-41 41 0 41 41-18.359 41-41 41zm0-75.685a34.68 34.68 0 1 0 34.674 34.685 34.72 34.72 0 0 0 -34.674-34.685z"/></g><path d="m57.517 58.744-.455.918 31.928 15.764.454-.918z" fill="#ef5261"/><path d="m68.955 63.088a3.84 3.84 0 1 0 -3.839 3.805 3.833 3.833 0 0 0 3.839-3.805z" fill="#62667c"/><path d="m67.09 63.08a1.975 1.975 0 1 0 -1.974 1.957 1.971 1.971 0 0 0 1.974-1.957z" fill="#bbbbcd"/></g></svg>